<?xml version="1.0" encoding="UTF-8"?>
<svg version="1.1" xmlns="http://www.w3.org/2000/svg" width="376" height="377">
<path d="M0 0 C0.95777344 0.74894531 1.91554688 1.49789062 2.90234375 2.26953125 C12.28870709 9.78652068 21.41374527 17.63621278 29 27 C29.60279785 27.73428223 29.60279785 27.73428223 30.21777344 28.48339844 C48.26090765 50.53318919 61.34032969 75.04304631 68.8125 102.625 C69.08658691 103.62345947 69.08658691 103.62345947 69.36621094 104.64208984 C73.17309724 119.66205066 74.5585353 134.73641415 74.4375 150.1875 C74.43412628 151.0323999 74.43075256 151.8772998 74.42727661 152.74780273 C74.16278161 198.72341716 57.48103178 243.04633369 26.015625 276.83203125 C24.09090389 278.90222547 22.26252513 281.02953109 20.4375 283.1875 C-7.99843784 315.73172148 -55.13128307 335.0983328 -97.36645508 338.83447266 C-143.83793139 341.75536456 -191.00373429 330.18219134 -228 301 C-228.95777344 300.25105469 -229.91554688 299.50210937 -230.90234375 298.73046875 C-240.28870709 291.21347932 -249.41374527 283.36378722 -257 274 C-257.40186523 273.51047852 -257.80373047 273.02095703 -258.21777344 272.51660156 C-276.26090765 250.46681081 -289.34032969 225.95695369 -296.8125 198.375 C-296.99522461 197.70936035 -297.17794922 197.0437207 -297.36621094 196.35791016 C-301.17309724 181.33794934 -302.5585353 166.26358585 -302.4375 150.8125 C-302.43412628 149.9676001 -302.43075256 149.1227002 -302.42727661 148.25219727 C-302.16278161 102.27658284 -285.48103178 57.95366631 -254.015625 24.16796875 C-252.09090389 22.09777453 -250.26252513 19.97046891 -248.4375 17.8125 C-220.00156216 -14.73172148 -172.86871693 -34.0983328 -130.63354492 -37.83447266 C-84.16206861 -40.75536456 -36.99626571 -29.18219134 0 0 Z " fill="#79AF56" transform="translate(302,38)"/>
<path d="M0 0 C8.31914892 5.53007009 13.44335146 15.2183719 15.65234375 24.78515625 C16.07813862 28.73252109 16.12926748 32.62993927 16.08984375 36.59765625 C16.08227051 37.65992432 16.07469727 38.72219238 16.06689453 39.81665039 C15.80450813 52.28766549 12.54458909 62.21554036 4.0625 71.53125 C-2.90978938 78.1098101 -11.07913812 79.95901069 -20.34765625 80.78515625 C-14.26914987 83.41469651 -8.18307376 86.02586759 -2.08837891 88.61767578 C-0.38864418 89.34172099 1.30984892 90.06869768 3.00634766 90.80029297 C5.00837402 91.6618376 7.01637492 92.50724355 9.02734375 93.34765625 C10.14882812 93.82332031 11.2703125 94.29898438 12.42578125 94.7890625 C16.76612073 96.12899781 20.71857119 96.49759877 25.02734375 94.91015625 C26.81144278 93.86765204 26.81144278 93.86765204 27.65234375 91.78515625 C28.31234375 91.78515625 28.97234375 91.78515625 29.65234375 91.78515625 C28.72288173 97.39861768 27.88390582 101.67805188 23.65234375 105.78515625 C18.78398968 108.68545229 14.16075531 108.62409969 8.65234375 107.78515625 C3.11059075 105.86797777 -2.1026283 103.39496014 -7.34765625 100.78515625 C-8.05744629 100.43259766 -8.76723633 100.08003906 -9.49853516 99.71679688 C-15.0922393 96.92693217 -15.0922393 96.92693217 -17.76831055 95.5390625 C-25.6756914 91.4717573 -33.35490048 87.9074744 -42.34765625 90.78515625 C-41.06976027 84.8216417 -38.01049231 82.30098451 -33.34765625 78.78515625 C-34.23517578 78.31335938 -34.23517578 78.31335938 -35.140625 77.83203125 C-46.3122558 71.78149059 -52.61139693 65.09283402 -56.34765625 52.78515625 C-59.1355631 37.61674198 -58.58178703 22.37860141 -50.1328125 9.17578125 C-37.78188815 -7.36418746 -17.77875528 -9.19998817 0 0 Z " fill="#FCFDFB" transform="translate(195.34765625,151.21484375)"/>
<path d="M0 0 C5.29212882 2.69754426 8.14105979 7.13572228 10.22265625 12.55859375 C15.22878728 28.28136709 15.52038953 50.27085437 8.86328125 65.62109375 C6.6007228 69.5109813 3.98650772 72.82554125 0 75 C-4.84223923 75.94329336 -8.03442138 75.5647724 -12.3125 73.0625 C-20.77662729 64.71560439 -21.26909492 51.19266956 -21.37109375 40.09179688 C-21.37238281 38.80337891 -21.37367188 37.51496094 -21.375 36.1875 C-21.39949219 34.91068359 -21.42398438 33.63386719 -21.44921875 32.31835938 C-21.4799044 22.26880743 -20.53405749 11.76414533 -13.875 3.75 C-9.49068415 -0.44369342 -5.93245693 -0.9919846 0 0 Z " fill="#7AAF58" transform="translate(179,151)"/>
<path d="M0 0 C3.72579024 2.17337764 5.20578558 4.18729436 7 8 C7.45890625 7.59007812 7.9178125 7.18015625 8.390625 6.7578125 C9.00421875 6.21898437 9.6178125 5.68015625 10.25 5.125 C10.85328125 4.59132812 11.4565625 4.05765625 12.078125 3.5078125 C16.46391241 0.06693051 20.03069834 -0.50033435 25.52734375 -0.37890625 C29.69223227 0.25931521 31.20220783 1.86101367 34 5 C40.47499573 15.71723431 39.56418575 32.35918207 37.61767578 44.35644531 C35.54157623 52.69817599 30.75271077 59.96540533 23.50390625 64.59375 C19.14814279 66.92372748 16.00324965 68.28488254 11 68 C11 67.01 11 66.02 11 65 C11.61488281 64.76796875 12.22976562 64.5359375 12.86328125 64.296875 C15.61302836 62.62792428 16.0788479 61.23657301 17.1875 58.25 C17.51105469 57.40953125 17.83460937 56.5690625 18.16796875 55.703125 C20.50185019 48.12074963 20.21887157 40.41853742 20.25 32.5625 C20.270625 31.26505859 20.29125 29.96761719 20.3125 28.63085938 C20.3546982 19.40159185 20.3546982 19.40159185 17 11 C15.95657219 9.76163834 15.95657219 9.76163834 13.6875 9.625 C10.85854042 9.76272326 10.85854042 9.76272326 8.86132812 11.93896484 C6.29884539 16.1530793 6.46767826 19.51270087 6.53125 24.3515625 C6.52420044 25.24741058 6.51715088 26.14325867 6.5098877 27.06625366 C6.48787801 29.91946147 6.490858 32.77173214 6.5 35.625 C6.51201395 39.38852887 6.49842818 43.15065729 6.46875 46.9140625 C6.48006958 47.77971832 6.49138916 48.64537415 6.50305176 49.53726196 C6.45253476 55.50686146 6.45253476 55.50686146 4.12524414 58.04296875 C1.58355019 59.18753397 -0.27813986 59.40019783 -3.0625 59.375 C-4.34833984 59.38660156 -4.34833984 59.38660156 -5.66015625 59.3984375 C-8.51965187 58.9115117 -9.23498771 58.26480426 -11 56 C-11.39872742 53.81697083 -11.39872742 53.81697083 -11.43237305 51.25317383 C-11.46206429 49.81201958 -11.46206429 49.81201958 -11.49235535 48.3417511 C-11.49874527 47.30729355 -11.50513519 46.272836 -11.51171875 45.20703125 C-11.52966995 44.14586594 -11.54762115 43.08470062 -11.56611633 41.99137878 C-11.62034524 38.59845975 -11.6541559 35.20568238 -11.6875 31.8125 C-11.7206619 29.5136521 -11.7551505 27.21482294 -11.79101562 24.91601562 C-11.87607882 19.27747079 -11.94437534 13.6389079 -12 8 C-12.78375 7.87625 -13.5675 7.7525 -14.375 7.625 C-17 7 -17 7 -19 5 C-12.5352451 0.54650218 -7.80752708 -0.91046242 0 0 Z " fill="#FCFDFB" transform="translate(90,172)"/>
<path d="M0 0 C0.77085937 -0.01417969 1.54171875 -0.02835938 2.3359375 -0.04296875 C4.91248088 0.21644432 6.44925673 0.79409846 8.625 2.1875 C10.70882862 5.31324293 10.88389959 6.09202555 10.94384766 9.65893555 C10.96371735 10.55964279 10.98358704 11.46035004 11.00405884 12.38835144 C11.01561005 13.35718765 11.02716125 14.32602386 11.0390625 15.32421875 C11.05842865 16.31879593 11.0777948 17.31337311 11.0977478 18.33808899 C11.15756159 21.5169719 11.20393639 24.69589098 11.25 27.875 C11.2881781 30.02931273 11.32722973 32.18361017 11.3671875 34.33789062 C11.46326451 39.62095809 11.54830674 44.90411753 11.625 50.1875 C17.14899741 49.09133746 17.14899741 49.09133746 22.10058594 46.57910156 C24.30302499 43.12376957 24.12227163 39.88299093 24.015625 35.921875 C24.00713531 34.73177826 24.00713531 34.73177826 23.99847412 33.51763916 C23.97613147 30.99030527 23.92594176 28.46440335 23.875 25.9375 C23.85493214 24.22137468 23.83668187 22.50522708 23.8203125 20.7890625 C23.77627395 16.5879922 23.70726326 12.38798865 23.625 8.1875 C21.645 8.5175 19.665 8.8475 17.625 9.1875 C18.8940242 5.38042739 21.33301248 3.3536878 24.55859375 1.171875 C28.21005013 -0.56757114 31.69294927 -0.51202213 35.625 0.1875 C38.04369578 1.3464584 39.74822096 2.31072096 41.625 4.1875 C41.74732644 5.66000645 41.8027456 7.13815711 41.83032227 8.61547852 C41.8602401 10.02682823 41.8602401 10.02682823 41.89076233 11.46669006 C41.90747482 12.48959641 41.92418732 13.51250275 41.94140625 14.56640625 C41.96218735 15.60820541 41.98296844 16.65000458 42.00437927 17.72337341 C42.06999057 21.06551247 42.12881331 24.40773285 42.1875 27.75 C42.23067422 30.00977418 42.27428814 32.26954001 42.31835938 34.52929688 C42.42568367 40.08194421 42.52742812 45.63467321 42.625 51.1875 C45.595 50.6925 45.595 50.6925 48.625 50.1875 C46.90092413 54.57605677 43.79526127 57.10236937 39.625 59.1875 C34.48998352 59.82369673 30.8233644 60.06793099 26.5625 56.9375 C24.79795922 54.4329905 24.22476275 53.08120071 23.625 50.1875 C23.20089844 50.58582031 22.77679688 50.98414063 22.33984375 51.39453125 C16.46185054 56.70410314 10.88216147 59.87651465 2.77734375 59.61328125 C-1.01436929 58.86319646 -2.76749791 56.99056474 -5.375 54.1875 C-6.28687611 51.45187166 -6.52230259 49.72604525 -6.58032227 46.8996582 C-6.60026749 46.03899246 -6.62021271 45.17832672 -6.64076233 44.2915802 C-6.65747482 43.36649155 -6.67418732 42.44140289 -6.69140625 41.48828125 C-6.71218735 40.53809616 -6.73296844 39.58791107 -6.75437927 38.6089325 C-6.81978052 35.57269544 -6.87871604 32.53637169 -6.9375 29.5 C-6.98069417 27.44204831 -7.02430876 25.38410541 -7.06835938 23.32617188 C-7.17545231 18.28003684 -7.27674646 13.23381457 -7.375 8.1875 C-9.355 8.5175 -11.335 8.8475 -13.375 9.1875 C-11.03589006 3.23340198 -6.23426933 0.05177965 0 0 Z " fill="#FDFDFC" transform="translate(230.375,171.8125)"/>
<path d="M0 0 C2.89049308 2.09560748 4.72668879 3.69147227 6.5 6.8125 C6.57264175 10.88043812 6.18482 12.9876662 3.5703125 16.13671875 C-0.33586134 19.84811128 -5.06726643 22.41090134 -9.6875 25.125 C-11.05938477 25.94967773 -11.05938477 25.94967773 -12.45898438 26.79101562 C-19.22806677 30.8125 -19.22806677 30.8125 -21.5 30.8125 C-19.56595722 38.76880606 -17.63087765 43.90210893 -10.75 48.75 C-6.39058229 50.17519425 -2.91091283 50.01188954 1.5 48.8125 C3.705561 47.6511855 5.50019813 46.32454531 7.5 44.8125 C8.16 44.8125 8.82 44.8125 9.5 44.8125 C6.98936904 50.4553259 2.43492113 54.21081762 -3.1875 56.6875 C-11.21759964 59.28136197 -19.6928696 58.63344779 -27.3125 55.12890625 C-33.23441368 51.56518319 -36.47927209 46.08095193 -38.80859375 39.6875 C-40.80102699 31.40257987 -40.8207262 21.37377084 -36.5 13.8125 C-27.72425851 1.8082845 -14.93899278 -5.06858684 0 0 Z " fill="#FBFDFA" transform="translate(323.5,173.1875)"/>
<path d="M0 0 C3.85719753 4.35920189 3.07630835 9.00309723 2.99487305 14.62768555 C2.99491333 15.79367279 2.99495361 16.95966003 2.99499512 18.16098022 C2.9896358 20.62389521 2.97203585 23.08680953 2.94311523 25.54956055 C2.90120378 29.33133821 2.90205029 33.11133951 2.90893555 36.89331055 C2.89844564 39.28394799 2.88550862 41.67457622 2.86987305 44.06518555 C2.86967163 45.20162506 2.86947021 46.33806458 2.8692627 47.50894165 C2.8453949 49.08099869 2.8453949 49.08099869 2.82104492 50.68481445 C2.81262573 51.60984772 2.80420654 52.53488098 2.79553223 53.48794556 C2.6653772 54.22241913 2.53522217 54.9568927 2.40112305 55.71362305 C-0.93285001 57.93627175 -2.19402586 58.01037768 -6.09887695 58.02612305 C-7.05793945 58.04288086 -8.01700195 58.05963867 -9.00512695 58.0769043 C-12.07531375 57.64689319 -12.74209866 57.13467296 -14.59887695 54.71362305 C-14.99760437 52.49263 -14.99760437 52.49263 -15.03125 49.875 C-15.06094124 48.40381462 -15.06094124 48.40381462 -15.0912323 46.90290833 C-15.09762222 45.846577 -15.10401215 44.79024567 -15.1105957 43.7019043 C-15.12854691 42.61854294 -15.14649811 41.53518158 -15.16499329 40.41899109 C-15.2192268 36.95474148 -15.2530344 33.49063067 -15.28637695 30.02612305 C-15.31953844 27.67909847 -15.35402699 25.33209224 -15.38989258 22.98510742 C-15.47496069 17.22807042 -15.54325528 11.47101574 -15.59887695 5.71362305 C-17.57887695 5.71362305 -19.55887695 5.71362305 -21.59887695 5.71362305 C-21.09887695 3.90112305 -21.09887695 3.90112305 -19.59887695 1.71362305 C-13.29441065 -1.38330777 -6.56899785 -3.25148423 0 0 Z " fill="#FDFDFC" transform="translate(60.598876953125,173.286376953125)"/>
<path d="M0 0 C2 1 2 1 3.1875 3.5 C3.93511853 6.72051058 3.96319089 8.22530193 3.5 11.375 C2.63778384 17.3902257 3.91147114 22.7053791 7 28 C12.63689034 26.67367286 14.93185683 22.53368235 18 18 C19.231394 21.69418201 18.64432764 24.2056261 18 28 C19.32 27.34 20.64 26.68 22 26 C22 27.65 22 29.3 22 31 C26.78775956 27.46386286 31.46451416 23.85516296 36 20 C34.3003494 24.73474097 31.86340973 28.96167111 29.375 33.3125 C28.95476562 34.05306641 28.53453125 34.79363281 28.1015625 35.55664062 C27.07051505 37.37269011 26.03563954 39.18656533 25 41 C24.67 40.34 24.34 39.68 24 39 C24.93578995 36.64018187 25.93347808 34.30368736 27 32 C26.01 32.66 25.02 33.32 24 34 C21.66800612 34.07905064 19.33167378 34.08798769 17 34 C16.34 31.69 15.68 29.38 15 27 C14.278125 27.66 13.55625 28.32 12.8125 29 C9.78402067 31.1535853 8.60296594 31.41176754 5 31 C3.68 28.36 2.36 25.72 1 23 C-0.75098126 25.62647188 -2.38731308 28.28775382 -4 31 C-8.55737263 30.56179109 -11.57653445 30.14958831 -15 27 C-15.33 29.31 -15.66 31.62 -16 34 C-21.625 34.25 -21.625 34.25 -25 32 C-24.34 34.97 -23.68 37.94 -23 41 C-26.09164355 36.97636645 -28.66175789 32.73260536 -31.25 28.375 C-31.72179687 27.59898437 -32.19359375 26.82296875 -32.6796875 26.0234375 C-33.12054688 25.2809375 -33.56140625 24.5384375 -34.015625 23.7734375 C-34.42071289 23.09716309 -34.82580078 22.42088867 -35.24316406 21.72412109 C-35.49291992 21.15516113 -35.74267578 20.58620117 -36 20 C-35.67 19.34 -35.34 18.68 -35 18 C-34.49210938 18.60328125 -33.98421875 19.2065625 -33.4609375 19.828125 C-29.6054822 24.30449632 -26.13411282 28.04788513 -21 31 C-21 29.35 -21 27.7 -21 26 C-20.01 26.66 -19.02 27.32 -18 28 C-18 24.7 -18 21.4 -18 18 C-13.2020202 22.54545455 -13.2020202 22.54545455 -12 25.25 C-11.09725562 27.30277024 -11.09725562 27.30277024 -8.375 27.75 C-7.59125 27.8325 -6.8075 27.915 -6 28 C-3.11289 22.10025347 -1.05785584 15.95700546 -2.625 9.375 C-3.20846088 5.67974773 -1.62605125 3.31714454 0 0 Z " fill="#EDF4E8" transform="translate(175,102)"/>
<path d="M0 0 C2.83925589 1.3528933 3.86609298 2.49265925 6 5 C6.06110999 8.54437948 5.9291248 10.81262904 3.70703125 13.65234375 C0.56772505 16.13074338 -3.10578624 16.21862253 -7 16 C-10.61774158 14.11575959 -11.68010474 12.8844163 -13.0625 9.0625 C-12.98173455 5.10499279 -11.7540538 3.7540538 -9 1 C-5.85088521 -0.57455739 -3.47991184 -0.34799118 0 0 Z " fill="#F7FAF5" transform="translate(57,151)"/>
<path d="M0 0 C2.5 0.625 2.5 0.625 4.8125 2.625 C6.63452228 5.86415072 7.38890995 7.94260913 7.21484375 11.6328125 C5.69221581 15.87620184 1.29567244 17.64384414 -2.5 19.625 C-3.45712891 20.13740234 -3.45712891 20.13740234 -4.43359375 20.66015625 C-5.77162529 21.35002863 -7.13315096 21.9941466 -8.5 22.625 C-8.76116727 15.44289999 -8.41667792 8.86352477 -4.6875 2.5625 C-2.5 0.625 -2.5 0.625 0 0 Z " fill="#7FB25E" transform="translate(309.5,177.375)"/>
<path d="M0 0 C0 3.31069001 -0.58516985 4.40636187 -2.1875 7.23046875 C-2.63867188 8.03291016 -3.08984375 8.83535156 -3.5546875 9.66210938 C-4.03164062 10.49548828 -4.50859375 11.32886719 -5 12.1875 C-5.47695312 13.03248047 -5.95390625 13.87746094 -6.4453125 14.74804688 C-7.6245619 16.83531832 -8.80962497 18.91905982 -10 21 C-10.33 20.34 -10.66 19.68 -11 19 C-10.06421005 16.64018187 -9.06652192 14.30368736 -8 12 C-8.99 12.66 -9.98 13.32 -11 14 C-13.33199388 14.07905064 -15.66832622 14.08798769 -18 14 C-17.75 11.125 -17.75 11.125 -17 8 C-14.9375 6.625 -14.9375 6.625 -13 6 C-13 7.65 -13 9.3 -13 11 C-8.30840284 7.61227103 -3.9700218 4.21814817 0 0 Z " fill="#ECF3E7" transform="translate(210,122)"/>
<path d="M0 0 C1.32 0.99 2.64 1.98 4 3 C4.66 2.01 5.32 1.02 6 0 C6.125 5.75 6.125 5.75 5 8 C3.02 8 1.04 8 -1 8 C-1.33 7.01 -1.66 6.02 -2 5 C-1.34 5 -0.68 5 0 5 C0 3.35 0 1.7 0 0 Z " fill="#F7FAF5" transform="translate(154,128)"/>
<path d="M0 0 C0.33 0 0.66 0 1 0 C1.28875 1.19625 1.5775 2.3925 1.875 3.625 C2.7524334 7.14726836 3.80020637 10.57201821 5 14 C4.01 14 3.02 14 2 14 C-0.66464729 8.77729131 -1.32854177 5.9180497 0 0 Z " fill="#E9F1E4" transform="translate(177,118)"/>
<path d="M0 0 C0.66 0 1.32 0 2 0 C2.33 2.64 2.66 5.28 3 8 C1.68 8.33 0.36 8.66 -1 9 C-0.67 6.03 -0.34 3.06 0 0 Z " fill="#E0ECD8" transform="translate(167,120)"/>
<path d="M0 0 C0.66 0 1.32 0 2 0 C2.33 2.97 2.66 5.94 3 9 C1.68 8.67 0.36 8.34 -1 8 C-0.67 5.36 -0.34 2.72 0 0 Z " fill="#E1EDDA" transform="translate(182,120)"/>
<path d="M0 0 C0 2.97 0 5.94 0 9 C-0.99 9.495 -0.99 9.495 -2 10 C-2 8.02 -2 6.04 -2 4 C-2.66 3.67 -3.32 3.34 -4 3 C-1.125 0 -1.125 0 0 0 Z " fill="#FAFCF9" transform="translate(193,124)"/>
<path d="M0 0 C0.66 0.33 1.32 0.66 2 1 C2 2.98 2 4.96 2 7 C0.68 7.33 -0.64 7.66 -2 8 C-1.125 2.25 -1.125 2.25 0 0 Z " fill="#F9FBF8" transform="translate(175,115)"/>
<path d="M0 0 C0 1.98 0 3.96 0 6 C-1.32 5.67 -2.64 5.34 -4 5 C-4 4.01 -4 3.02 -4 2 C-1 0 -1 0 0 0 Z " fill="#BED8AD" transform="translate(197,128)"/>
<path d="M0 0 C1.32 1.32 2.64 2.64 4 4 C3.67 4.66 3.34 5.32 3 6 C1.68 5.67 0.36 5.34 -1 5 C-0.67 3.35 -0.34 1.7 0 0 Z " fill="#C4DBB5" transform="translate(154,128)"/>
</svg>
